<svg viewBox="0 0 300 400" xmlns="http://www.w3.org/2000/svg" role="img" aria-label="Racines et Promesses — Luciana et Ben">
  <title>Racines &amp; Promesses — Luciana &amp; Ben</title>
  <defs>
    <g id="leaf">
      <path d="M0,-9 C3.6,-6.2 3.6,5.6 0,9 C-3.6,5.6 -3.6,-6.2 0,-9 Z" fill="currentColor"/>
      <path d="M0,-7 L0,7" stroke="currentColor" stroke-width="0.45" opacity="0.4"/>
    </g>
    <g id="rivet">
      <circle r="1.6" fill="#8C6A3E"/>
    </g>
  </defs>

  <!-- ===== Cadre feston (bordure or mat) ===== -->
  <g fill="#C6A15B">
    <circle cx="150" cy="150" r="118"/>
    <circle cx="268.0" cy="150.0" r="26"/>
    <circle cx="259.0" cy="195.2" r="26"/>
    <circle cx="233.4" cy="233.4" r="26"/>
    <circle cx="195.2" cy="259.0" r="26"/>
    <circle cx="150.0" cy="268.0" r="26"/>
    <circle cx="104.8" cy="259.0" r="26"/>
    <circle cx="66.6" cy="233.4" r="26"/>
    <circle cx="41.0" cy="195.2" r="26"/>
    <circle cx="32.0" cy="150.0" r="26"/>
    <circle cx="41.0" cy="104.8" r="26"/>
    <circle cx="66.6" cy="66.6" r="26"/>
    <circle cx="104.8" cy="41.0" r="26"/>
    <circle cx="150.0" cy="32.0" r="26"/>
    <circle cx="195.2" cy="41.0" r="26"/>
    <circle cx="233.4" cy="66.6" r="26"/>
    <circle cx="259.0" cy="104.8" r="26"/>
  </g>
  <circle cx="150" cy="150" r="118" fill="none" stroke="#8C6A3E" stroke-width="1.4" opacity="0.35"/>

  <use href="#rivet" x="268.0" y="150.0"/>
  <use href="#rivet" x="259.0" y="195.2"/>
  <use href="#rivet" x="233.4" y="233.4"/>
  <use href="#rivet" x="195.2" y="259.0"/>
  <use href="#rivet" x="150.0" y="268.0"/>
  <use href="#rivet" x="104.8" y="259.0"/>
  <use href="#rivet" x="66.6" y="233.4"/>
  <use href="#rivet" x="41.0" y="195.2"/>
  <use href="#rivet" x="32.0" y="150.0"/>
  <use href="#rivet" x="41.0" y="104.8"/>
  <use href="#rivet" x="66.6" y="66.6"/>
  <use href="#rivet" x="104.8" y="41.0"/>
  <use href="#rivet" x="150.0" y="32.0"/>
  <use href="#rivet" x="195.2" y="41.0"/>
  <use href="#rivet" x="233.4" y="66.6"/>
  <use href="#rivet" x="259.0" y="104.8"/>

  <!-- ===== Face du sceau ===== -->
  <circle cx="150" cy="150" r="100" fill="#3E4B36"/>
  <circle cx="150" cy="150" r="100" fill="none" stroke="#33402C" stroke-width="2" opacity="0.5"/>
  <circle cx="150" cy="150" r="88" fill="none" stroke="#C6A15B" stroke-width="1.1" opacity="0.9"/>
  <circle cx="150" cy="150" r="80" fill="none" stroke="#C6A15B" stroke-width="0.6" opacity="0.55"/>

  <!-- ===== Ornements ===== -->
  <g fill="#C6A15B">
    <path d="M150,58 C145,53 141,54 139,59 C143,62 148,61 150,58 Z"/>
    <path d="M150,58 C155,53 159,54 161,59 C157,62 152,61 150,58 Z"/>
    <circle cx="150" cy="55" r="1.5"/>
    <path d="M150,242 C145,247 141,246 139,241 C143,238 148,239 150,242 Z"/>
    <path d="M150,242 C155,247 159,246 161,241 C157,238 152,239 150,242 Z"/>
    <circle cx="150" cy="245" r="1.5"/>
  </g>
  <g stroke="#C6A15B" fill="none" stroke-width="1" opacity="0.85">
    <path d="M75,140 Q68,150 75,162"/>
    <path d="M225,140 Q232,150 225,162"/>
  </g>
  <g style="color:#C6A15B">
    <use href="#leaf" transform="translate(70,132) rotate(-25) scale(.55)"/>
    <use href="#leaf" transform="translate(70,170) rotate(25) scale(.55)"/>
    <use href="#leaf" transform="translate(230,132) rotate(25) scale(.55)"/>
    <use href="#leaf" transform="translate(230,170) rotate(-25) scale(.55)"/>
  </g>

  <!-- ===== Feuillage ===== -->
  <g style="color:#F3EEE1">
    <use href="#leaf" transform="translate(150,78) rotate(0) scale(1.05)"/>
    <use href="#leaf" transform="translate(132,84) rotate(-18) scale(.95)"/>
    <use href="#leaf" transform="translate(168,84) rotate(18) scale(.95)"/>
    <use href="#leaf" transform="translate(114,92) rotate(-32) scale(.88)"/>
    <use href="#leaf" transform="translate(186,92) rotate(32) scale(.88)"/>
    <use href="#leaf" transform="translate(98,104) rotate(-46) scale(.8)"/>
    <use href="#leaf" transform="translate(202,104) rotate(46) scale(.8)"/>
    <use href="#leaf" transform="translate(86,120) rotate(-60) scale(.72)"/>
    <use href="#leaf" transform="translate(214,120) rotate(60) scale(.72)"/>
    <use href="#leaf" transform="translate(80,138) rotate(-75) scale(.62)"/>
    <use href="#leaf" transform="translate(220,138) rotate(75) scale(.62)"/>
    <use href="#leaf" transform="translate(122,72) rotate(-10) scale(.8)"/>
    <use href="#leaf" transform="translate(178,72) rotate(10) scale(.8)"/>
    <use href="#leaf" transform="translate(106,78) rotate(-24) scale(.7)"/>
    <use href="#leaf" transform="translate(194,78) rotate(24) scale(.7)"/>
    <use href="#leaf" transform="translate(140,64) rotate(-6) scale(.72)"/>
    <use href="#leaf" transform="translate(160,64) rotate(6) scale(.72)"/>
    <use href="#leaf" transform="translate(150,58) rotate(0) scale(.6)"/>
    <use href="#leaf" transform="translate(96,88) rotate(-40) scale(.6)"/>
    <use href="#leaf" transform="translate(204,88) rotate(40) scale(.6)"/>
    <use href="#leaf" transform="translate(112,108) rotate(-52) scale(.66)"/>
    <use href="#leaf" transform="translate(188,108) rotate(52) scale(.66)"/>
    <use href="#leaf" transform="translate(128,98) rotate(-20) scale(.62)"/>
    <use href="#leaf" transform="translate(172,98) rotate(20) scale(.62)"/>
    <use href="#leaf" transform="translate(150,96) rotate(0) scale(.7)"/>
    <use href="#leaf" transform="translate(140,110) rotate(-8) scale(.55)"/>
    <use href="#leaf" transform="translate(160,110) rotate(8) scale(.55)"/>
  </g>

  <!-- ===== Tronc et branches ===== -->
  <g fill="none" stroke="#F3EEE1" stroke-width="1.3" opacity="0.9">
    <path d="M150,168 C149,150 150,132 150,115"/>
    <path d="M150,140 C140,126 128,112 116,100"/>
    <path d="M150,140 C160,126 172,112 184,100"/>
    <path d="M150,122 C143,110 134,100 126,90"/>
    <path d="M150,122 C157,110 166,100 174,90"/>
    <path d="M150,168 C142,166 132,166 122,170"/>
    <path d="M150,168 C158,166 168,166 178,170"/>
  </g>

  <!-- ===== Racines ===== -->
  <g fill="none" stroke="#F3EEE1" stroke-width="1.2" opacity="0.9">
    <path d="M150,168 C148,178 142,186 132,192"/>
    <path d="M150,168 C152,178 158,186 168,192"/>
    <path d="M150,168 L150,196"/>
    <path d="M132,192 C120,196 110,198 98,196"/>
    <path d="M168,192 C180,196 190,198 202,196"/>
    <path d="M132,192 C126,200 118,206 108,208"/>
    <path d="M168,192 C174,200 182,206 192,208"/>
    <path d="M150,196 C148,204 144,210 138,214"/>
    <path d="M150,196 C152,204 156,210 162,214"/>
  </g>

  <!-- ===== Eau ===== -->
  <g fill="none" stroke="#F3EEE1">
    <path d="M92,218 Q121,208 150,218 T208,218" stroke-width="1.4" opacity="0.85"/>
    <path d="M88,226 Q119,218 150,226 T212,226" stroke-width="1" opacity="0.5"/>
    <path d="M96,233 Q123,227 150,233 T204,233" stroke-width="0.7" opacity="0.3"/>
  </g>

  <!-- ===== Monogramme ===== -->
  <g>
    <path d="M112,146 Q150,158 188,146" fill="none" stroke="#F3EEE1" stroke-width="0.6" opacity="0.5"/>
    <text x="118" y="163" text-anchor="middle" font-family="'Snell Roundhand','Brush Script MT','Segoe Script',Georgia,serif" font-style="italic" font-size="58" fill="#F3EEE1">L</text>
    <text x="150" y="145" text-anchor="middle" font-family="Georgia,serif" font-style="italic" font-size="24" fill="#C6A15B">&amp;</text>
    <text x="184" y="163" text-anchor="middle" font-family="'Snell Roundhand','Brush Script MT','Segoe Script',Georgia,serif" font-style="italic" font-size="58" fill="#F3EEE1">B</text>
  </g>

  <!-- ===== Signature ===== -->
  <text x="150" y="340" text-anchor="middle" font-family="Georgia,'Iowan Old Style',serif" font-size="34" fill="#4A5A42">Luciana &amp; Ben</text>
  <g stroke="#B68A5A" stroke-width="1">
    <line x1="90" y1="362" x2="128" y2="362"/>
    <line x1="172" y1="362" x2="210" y2="362"/>
  </g>
  <g style="color:#7D8F72">
    <use href="#leaf" transform="translate(150,362) rotate(0) scale(.6)"/>
  </g>
</svg>
